HIERARCHY
ROOT joint_0
{
	OFFSET 0.000000 0.000000 0.000000
	CHANNELS 6 Xposition Yposition Zposition Zrotation Yrotation Xrotation 
	JOINT joint_1
	{
		OFFSET 11.612000 -0.419000 106.198000
		CHANNELS 3 Zrotation Yrotation Xrotation
		JOINT joint_2
		{
			OFFSET -1.708000 -1.022000 97.564090
			CHANNELS 3 Zrotation Yrotation Xrotation
			JOINT joint_3
			{
				OFFSET -4.121000 -1.538000 97.375000
				CHANNELS 3 Zrotation Yrotation Xrotation
				JOINT joint_4
				{
					OFFSET 5.442000 -2.123000 132.795900
					CHANNELS 3 Zrotation Yrotation Xrotation
					JOINT joint_5
					{
						OFFSET 21.935000 0.195000 82.975100
						CHANNELS 3 Zrotation Yrotation Xrotation
						End Site
						{
							OFFSET 0.000000 0.000000 0.000000
						}
					}
				}
				JOINT joint_6
				{
					OFFSET 4.262000 -30.048000 73.899900
					CHANNELS 3 Zrotation Yrotation Xrotation
					JOINT joint_7
					{
						OFFSET 9.731000 -136.810010 -21.963010
						CHANNELS 3 Zrotation Yrotation Xrotation
						JOINT joint_8
						{
							OFFSET 33.360000 -35.709000 -267.597900
							CHANNELS 3 Zrotation Yrotation Xrotation
							JOINT joint_9
							{
								OFFSET 36.156000 -29.759000 -240.558040
								CHANNELS 3 Zrotation Yrotation Xrotation
								End Site
								{
									OFFSET 0.000000 0.000000 0.000000
								}
							}
						}
					}
				}
				JOINT joint_10
				{
					OFFSET 2.027000 27.734000 74.914920
					CHANNELS 3 Zrotation Yrotation Xrotation
					JOINT joint_11
					{
						OFFSET -5.183000 136.784000 -23.604980
						CHANNELS 3 Zrotation Yrotation Xrotation
						JOINT joint_12
						{
							OFFSET 29.806000 37.229000 -267.809940
							CHANNELS 3 Zrotation Yrotation Xrotation
							JOINT joint_13
							{
								OFFSET 36.890000 46.524990 -237.772030
								CHANNELS 3 Zrotation Yrotation Xrotation
								End Site
								{
									OFFSET 0.000000 0.000000 0.000000
								}
							}
						}
					}
				}
			}
		}
	}
	JOINT joint_14
	{
		OFFSET -7.290000 -102.873990 -124.314940
		CHANNELS 3 Zrotation Yrotation Xrotation
		JOINT joint_15
		{
			OFFSET -15.466000 -19.909010 -438.533020
			CHANNELS 3 Zrotation Yrotation Xrotation
			JOINT joint_16
			{
				OFFSET -26.899000 -18.922000 -464.797000
				CHANNELS 3 Zrotation Yrotation Xrotation
				JOINT joint_17
				{
					OFFSET 179.329000 -12.011000 -84.174000
					CHANNELS 3 Zrotation Yrotation Xrotation
					End Site
					{
						OFFSET 0.000000 0.000000 0.000000
					}
				}
			}
		}
	}
	JOINT joint_18
	{
		OFFSET -6.225000 101.546000 -125.479980
		CHANNELS 3 Zrotation Yrotation Xrotation
		JOINT joint_19
		{
			OFFSET -13.973000 7.996000 -438.963010
			CHANNELS 3 Zrotation Yrotation Xrotation
			JOINT joint_20
			{
				OFFSET -44.294000 5.716000 -463.813970
				CHANNELS 3 Zrotation Yrotation Xrotation
				JOINT joint_21
				{
					OFFSET 178.505000 -4.689000 -85.139000
					CHANNELS 3 Zrotation Yrotation Xrotation
					End Site
					{
						OFFSET 0.000000 0.000000 0.000000
					}
				}
			}
		}
	}
}
MOTION
Frames: 10
Frame Time: 0.016667
-3398.710693 904.045471 1127.364014 -2.701728 -4.527614 0.565647 -0.364215 7.963274 0.596283 -0.492445 -1.573840 -0.147020 -0.433787 1.499964 0.039262 0.011251 0.335302 -0.042985 0.000000 0.000000 0.000000 -1.827527 -1.362007 1.585463 0.146334 -1.956530 -2.275752 1.897817 -9.546730 3.608851 0.000000 0.000000 0.000000 0.384490 -2.752314 -0.828680 -0.902837 -2.926464 0.010743 -2.161088 -7.114697 -5.596330 0.000000 0.000000 0.000000 0.241866 3.021134 -0.939387 0.320305 1.328799 -0.852534 0.384630 -1.641901 0.070280 0.000000 0.000000 0.000000 4.174454 4.350136 -0.968312 4.039766 -1.791476 0.593641 3.953734 0.409351 1.893728 0.000000 0.000000 0.000000 
-3397.483154 903.663452 1127.375977 -2.581538 -4.412489 0.540418 -0.349862 8.133822 0.668547 -0.483212 -1.600107 -0.161450 -0.423518 1.519138 0.044664 0.015692 0.114163 -0.058860 0.000000 0.000000 0.000000 -2.037261 -0.704725 1.237997 0.184070 -1.298378 -2.065474 2.643842 -13.195962 4.902338 0.000000 0.000000 0.000000 0.385034 -2.218072 -0.856262 -0.906656 -2.382199 0.212092 -2.726106 -9.816755 -6.401363 0.000000 0.000000 0.000000 0.080365 2.957428 -0.918203 0.152653 1.401602 -0.847685 0.237400 -1.946356 -0.019097 0.000000 0.000000 0.000000 4.214500 4.193733 -0.921163 4.086694 -1.666887 0.544261 3.991002 0.357518 1.910536 0.000000 0.000000 0.000000 
-3396.096191 903.255127 1127.395020 -2.437707 -4.267210 0.515077 -0.340016 8.309063 0.755842 -0.479473 -1.631433 -0.185390 -0.418101 1.543536 0.058021 0.018411 -0.147881 -0.068780 0.000000 0.000000 0.000000 -2.265487 0.129189 0.751949 0.238503 -0.452354 -1.772209 3.639152 -18.469494 6.335513 0.000000 0.000000 0.000000 0.430866 -1.511474 -0.713249 -0.872024 -1.666429 0.404713 -3.538306 -13.934745 -7.697571 0.000000 0.000000 0.000000 -0.081104 2.858779 -0.899503 -0.018816 1.520188 -0.841130 0.093318 -2.367943 -0.114843 0.000000 0.000000 0.000000 4.238524 4.006165 -0.854548 4.119059 -1.507509 0.487409 4.011930 0.193637 1.916626 0.000000 0.000000 0.000000 
-3394.737061 902.849426 1127.416992 -2.256764 -4.084484 0.500257 -0.338550 8.464545 0.864836 -0.485181 -1.678049 -0.222268 -0.421128 1.584630 0.081720 0.019870 -0.470283 -0.075023 0.000000 0.000000 0.000000 -2.439140 1.215112 0.307175 0.260897 0.651176 -1.584646 4.927056 -26.249423 7.736034 0.000000 0.000000 0.000000 0.526719 -0.600518 -0.469422 -0.693440 -0.703158 0.833321 -4.676986 -20.227974 -9.870997 0.000000 0.000000 0.000000 -0.208126 2.704291 -0.894102 -0.161611 1.701516 -0.834381 -0.014375 -2.929886 -0.202935 0.000000 0.000000 0.000000 4.215610 3.777525 -0.763328 4.106182 -1.298688 0.427518 3.986656 -0.163548 1.895546 0.000000 0.000000 0.000000 
-3393.385010 902.443848 1127.438965 -2.042369 -3.868096 0.491222 -0.345436 8.617588 1.001544 -0.500504 -1.750918 -0.267107 -0.433118 1.654263 0.110006 0.023323 -0.857570 -0.091264 0.000000 0.000000 0.000000 -2.524709 2.504207 0.309954 0.191938 1.915480 -1.871489 6.349155 -36.170808 9.007989 0.000000 0.000000 0.000000 0.628434 0.422423 -0.510086 -0.238087 0.492782 1.853501 -5.955884 -28.386067 -12.783369 0.000000 0.000000 0.000000 -0.319574 2.499776 -0.897439 -0.293853 1.939438 -0.828721 -0.104096 -3.623202 -0.291395 0.000000 0.000000 0.000000 4.161469 3.502389 -0.648650 4.064281 -1.037261 0.361011 3.930843 -0.673492 1.855854 0.000000 0.000000 0.000000 
-3391.376221 901.927917 1127.500000 -1.823873 -3.625502 0.477250 -0.346917 8.777119 1.108079 -0.509429 -1.817435 -0.303763 -0.439833 1.714965 0.131637 0.017526 -1.259828 -0.075797 0.000000 0.000000 0.000000 -2.641579 3.627897 0.383785 0.059589 2.977004 -2.414468 7.593390 -46.157798 10.267317 0.000000 0.000000 0.000000 0.725953 1.310188 -0.524096 0.299039 1.606967 2.830346 -7.086756 -36.936492 -15.474130 0.000000 0.000000 0.000000 -0.424342 2.298765 -0.893283 -0.420676 2.200486 -0.806240 -0.183564 -4.390016 -0.379974 0.000000 0.000000 0.000000 4.091131 3.267107 -0.517824 4.005492 -0.816697 0.294464 3.858996 -1.265005 1.806350 0.000000 0.000000 0.000000 
-3388.374268 901.256714 1127.670044 -1.618227 -3.375104 0.451321 -0.330986 8.968266 1.135131 -0.498327 -1.843353 -0.317106 -0.429219 1.729839 0.140989 -0.004505 -1.633845 -0.002082 0.000000 0.000000 0.000000 -2.889735 4.470440 0.026335 -0.150396 3.752363 -2.941917 8.617885 -55.708796 11.748543 0.000000 0.000000 0.000000 0.807392 2.028021 -0.092630 0.659891 2.509597 3.125555 -8.072358 -45.440370 -17.345110 0.000000 0.000000 0.000000 -0.525977 2.142068 -0.879118 -0.544264 2.474854 -0.741833 -0.254553 -5.212786 -0.468345 0.000000 0.000000 0.000000 4.011588 3.135717 -0.375585 3.934740 -0.691419 0.233176 3.777355 -1.905896 1.750840 0.000000 0.000000 0.000000 
-3384.635254 900.473511 1127.936035 -1.415082 -3.113311 0.416901 -0.301678 9.186848 1.108203 -0.472079 -1.841257 -0.315458 -0.405543 1.714660 0.140257 -0.040333 -1.999691 0.119708 0.000000 0.000000 0.000000 -3.246124 5.105850 -0.521991 -0.501856 4.287251 -3.608364 9.492560 -65.561354 13.375152 0.000000 0.000000 0.000000 0.886284 2.629227 0.582983 0.839771 3.257237 3.033292 -9.032647 -54.364529 -18.658736 0.000000 0.000000 0.000000 -0.620997 2.008114 -0.860509 -0.662617 2.775221 -0.641470 -0.314262 -6.108883 -0.556361 0.000000 0.000000 0.000000 3.918735 3.073893 -0.217554 3.849188 -0.625648 0.173801 3.682018 -2.619518 1.686825 0.000000 0.000000 0.000000 
-3379.679199 899.443542 1128.093994 -1.219151 -2.775662 0.377533 -0.279405 9.326258 1.059787 -0.450837 -1.828342 -0.307335 -0.387611 1.692467 0.136149 -0.081608 -2.398155 0.263144 0.000000 0.000000 0.000000 -3.607871 5.319885 -0.973851 -1.014873 4.390126 -4.413099 10.150665 -74.404321 15.055206 0.000000 0.000000 0.000000 0.987592 3.013180 1.217860 0.894010 3.738140 2.955688 -9.913619 -62.898648 -19.504351 0.000000 0.000000 0.000000 -0.715173 1.872020 -0.801370 -0.776399 3.044159 -0.566245 -0.373374 -6.977620 -0.642276 0.000000 0.000000 0.000000 3.822265 3.050888 -0.044875 3.758421 -0.657866 0.113253 3.583012 -3.338609 1.620845 0.000000 0.000000 0.000000 
-3373.169922 898.069885 1128.038940 -1.048221 -2.314344 0.329063 -0.274881 9.308613 1.016378 -0.445061 -1.809967 -0.303473 -0.384612 1.673770 0.137625 -0.124396 -2.858771 0.423533 0.000000 0.000000 0.000000 -3.883207 4.971753 -1.231009 -1.734102 4.001232 -5.375141 10.589519 -81.600089 16.869925 0.000000 0.000000 0.000000 1.130603 3.156878 1.689223 0.899569 3.932452 3.076130 -10.705281 -70.831292 -19.783321 0.000000 0.000000 0.000000 -0.810498 1.703799 -0.659214 -0.884179 3.255509 -0.571303 -0.437764 -7.749140 -0.724116 0.000000 0.000000 0.000000 3.732772 3.056028 0.150905 3.672865 -0.836717 0.043483 3.490822 -4.012692 1.559127 0.000000 0.000000 0.000000 
